<?xml version="1.0" standalone="no"?>
<!DOCTYPE svg PUBLIC "-//W3C//DTD SVG 20010904//EN"
 "http://www.w3.org/TR/2001/REC-SVG-20010904/DTD/svg10.dtd">
<svg version="1.0" xmlns="http://www.w3.org/2000/svg"
 width="120.000000pt" height="120.000000pt" viewBox="0 0 120.000000 120.000000"
 preserveAspectRatio="xMidYMid meet">
<metadata>
Created by potrace 1.11, written by Peter Selinger 2001-2013
</metadata>
<g transform="translate(0.000000,120.000000) scale(0.100000,-0.100000)"
fill="#000000" stroke="none">
<path d="M170 1187 c-50 -16 -143 -112 -158 -164 -9 -30 -12 -151 -12 -434 l1
-391 26 -52 c14 -28 41 -65 61 -82 67 -61 92 -64 521 -64 l386 0 50 24 c64 32
86 51 121 106 l29 45 3 404 c3 460 2 467 -74 545 -74 74 -89 76 -533 75 -249
-1 -398 -5 -421 -12z m850 -72 c40 -21 74 -54 93 -92 15 -28 16 -78 14 -430
l-2 -399 -27 -41 c-16 -24 -44 -49 -70 -62 -43 -20 -57 -21 -428 -21 -371 0
-385 1 -428 21 -26 13 -54 38 -70 62 l-27 41 -3 385 c-2 246 1 399 7 421 13
46 58 95 102 114 51 22 797 23 839 1z"/>
</g>
</svg>
